<svg width="22" height="22" viewBox="0 0 22 22" fill="none" xmlns="http://www.w3.org/2000/svg">
<path fill-rule="evenodd" clip-rule="evenodd" d="M11 21C16.5228 21 21 16.5228 21 11C21 5.47715 16.5228 1 11 1C5.47715 1 1 5.47715 1 11C1 16.5228 5.47715 21 11 21ZM11 22C17.0751 22 22 17.0751 22 11C22 4.92487 17.0751 0 11 0C4.92487 0 0 4.92487 0 11C0 17.0751 4.92487 22 11 22Z" fill="white"/>
<path d="M15.6119 16C15.5613 16.0003 15.5111 15.9906 15.4643 15.9714C15.4175 15.9523 15.3749 15.9241 15.339 15.8885L6.11378 6.65916C6.0414 6.58675 6.00073 6.48854 6.00073 6.38613C6.00073 6.28372 6.0414 6.18551 6.11378 6.11309C6.18616 6.04068 6.28433 6 6.38669 6C6.48905 6 6.58722 6.04068 6.6596 6.11309L15.8848 15.3424C15.9208 15.3782 15.9494 15.4207 15.9689 15.4675C15.9884 15.5144 15.9985 15.5647 15.9985 15.6154C15.9985 15.6662 15.9884 15.7165 15.9689 15.7633C15.9494 15.8102 15.9208 15.8527 15.8848 15.8885C15.8489 15.9241 15.8063 15.9523 15.7595 15.9714C15.7126 15.9906 15.6625 16.0003 15.6119 16Z" fill="white"/>
<path d="M6.38661 16C6.33602 16.0003 6.28588 15.9906 6.23904 15.9714C6.19221 15.9523 6.14962 15.9241 6.1137 15.8885C6.07767 15.8527 6.04908 15.8102 6.02956 15.7633C6.01005 15.7165 6 15.6662 6 15.6154C6 15.5647 6.01005 15.5144 6.02956 15.4675C6.04908 15.4207 6.07767 15.3782 6.1137 15.3424L15.3389 6.11309C15.4113 6.04068 15.5094 6 15.6118 6C15.7142 6 15.8123 6.04068 15.8847 6.11309C15.9571 6.18551 15.9978 6.28372 15.9978 6.38613C15.9978 6.48854 15.9571 6.58675 15.8847 6.65916L6.65952 15.8885C6.62361 15.9241 6.58101 15.9523 6.53418 15.9714C6.48735 15.9906 6.4372 16.0003 6.38661 16Z" fill="white"/>
</svg>
