<svg width="22" height="22" viewBox="0 0 22 22" fill="none" xmlns="http://www.w3.org/2000/svg">
<path fill-rule="evenodd" clip-rule="evenodd" d="M11 21C16.5228 21 21 16.5228 21 11C21 5.47715 16.5228 1 11 1C5.47715 1 1 5.47715 1 11C1 16.5228 5.47715 21 11 21ZM11 22C17.0751 22 22 17.0751 22 11C22 4.92487 17.0751 0 11 0C4.92487 0 0 4.92487 0 11C0 17.0751 4.92487 22 11 22Z" fill="white"/>
<path d="M14.9282 7.26262L9.85563 12.3352L7.53077 10.0102C7.18063 9.66011 6.61284 9.66005 6.26265 10.0102C5.91245 10.3604 5.91245 10.9281 6.26265 11.2783L9.22154 14.2373C9.3897 14.4055 9.61777 14.5 9.85557 14.5C9.85563 14.5 9.85557 14.5 9.85563 14.5C10.0934 14.5 10.3215 14.4055 10.4897 14.2374L16.1964 8.5308C16.5466 8.1806 16.5466 7.61287 16.1964 7.26268C15.8462 6.91248 15.2784 6.91242 14.9282 7.26262Z" fill="white"/>
</svg>
