<svg width="22" height="22" viewBox="0 0 22 22" fill="none" xmlns="http://www.w3.org/2000/svg">
<circle cx="11" cy="11" r="10.5" stroke="white"/>
<path d="M11.5049 16H10.2891V7.97266H11.5049V16ZM10.1865 5.79736C10.1865 5.51904 10.2549 5.31641 10.3916 5.18945C10.5283 5.05762 10.6992 4.9917 10.9043 4.9917C11.0996 4.9917 11.2681 5.05762 11.4097 5.18945C11.5513 5.32129 11.6221 5.52393 11.6221 5.79736C11.6221 6.0708 11.5513 6.27588 11.4097 6.4126C11.2681 6.54443 11.0996 6.61035 10.9043 6.61035C10.6992 6.61035 10.5283 6.54443 10.3916 6.4126C10.2549 6.27588 10.1865 6.0708 10.1865 5.79736Z" fill="white"/>
</svg>
